<mxfile host="65bd71144e">
    <diagram id="8Cc0NwZecqlzv5SXY3Pg" name="Page-1">
        <mxGraphModel dx="448" dy="365" grid="0" gridSize="10" guides="1" tooltips="1" connect="1" arrows="1" fold="1" page="1" pageScale="1" pageWidth="850" pageHeight="1100" math="0" shadow="0">
            <root>
                <mxCell id="0"/>
                <mxCell id="1" parent="0"/>
                <mxCell id="21" style="edgeStyle=orthogonalEdgeStyle;rounded=0;orthogonalLoop=1;jettySize=auto;html=1;" parent="1" source="2" target="4" edge="1">
                    <mxGeometry relative="1" as="geometry"/>
                </mxCell>
                <mxCell id="2" value="public" style="whiteSpace=wrap;html=1;fillColor=#6d8764;strokeColor=#3A5431;fontColor=#ffffff;" parent="1" vertex="1">
                    <mxGeometry x="20" y="132" width="80" height="30" as="geometry"/>
                </mxCell>
                <mxCell id="22" style="edgeStyle=orthogonalEdgeStyle;rounded=0;orthogonalLoop=1;jettySize=auto;html=1;" parent="1" source="3" target="5" edge="1">
                    <mxGeometry relative="1" as="geometry"/>
                </mxCell>
                <mxCell id="23" style="edgeStyle=orthogonalEdgeStyle;rounded=0;orthogonalLoop=1;jettySize=auto;html=1;entryX=0;entryY=0.5;entryDx=0;entryDy=0;" parent="1" source="3" target="6" edge="1">
                    <mxGeometry relative="1" as="geometry"/>
                </mxCell>
                <mxCell id="146" style="edgeStyle=none;rounded=0;html=1;entryX=0;entryY=0.5;entryDx=0;entryDy=0;" edge="1" parent="1" source="3" target="115">
                    <mxGeometry relative="1" as="geometry">
                        <Array as="points">
                            <mxPoint x="123" y="214"/>
                            <mxPoint x="123" y="260"/>
                            <mxPoint x="123" y="319"/>
                        </Array>
                    </mxGeometry>
                </mxCell>
                <mxCell id="147" style="edgeStyle=none;rounded=0;html=1;entryX=0;entryY=0.5;entryDx=0;entryDy=0;" edge="1" parent="1" source="3" target="116">
                    <mxGeometry relative="1" as="geometry">
                        <Array as="points">
                            <mxPoint x="123" y="214"/>
                            <mxPoint x="123" y="421"/>
                        </Array>
                    </mxGeometry>
                </mxCell>
                <mxCell id="3" value="src" style="whiteSpace=wrap;html=1;fillColor=#6d8764;strokeColor=#3A5431;fontColor=#ffffff;" parent="1" vertex="1">
                    <mxGeometry x="20" y="199" width="80" height="30" as="geometry"/>
                </mxCell>
                <mxCell id="4" value="index.html" style="rounded=1;whiteSpace=wrap;html=1;fillColor=#0050ef;strokeColor=#001DBC;fontColor=#ffffff;" parent="1" vertex="1">
                    <mxGeometry x="146" y="132" width="80" height="30" as="geometry"/>
                </mxCell>
                <mxCell id="24" style="edgeStyle=orthogonalEdgeStyle;rounded=0;orthogonalLoop=1;jettySize=auto;html=1;entryX=0.5;entryY=1;entryDx=0;entryDy=0;" parent="1" source="5" target="4" edge="1">
                    <mxGeometry relative="1" as="geometry"/>
                </mxCell>
                <mxCell id="25" style="edgeStyle=orthogonalEdgeStyle;rounded=0;orthogonalLoop=1;jettySize=auto;html=1;" parent="1" source="5" target="6" edge="1">
                    <mxGeometry relative="1" as="geometry"/>
                </mxCell>
                <mxCell id="5" value="index.js" style="rounded=1;whiteSpace=wrap;html=1;fillColor=#0050ef;strokeColor=#001DBC;fontColor=#ffffff;" parent="1" vertex="1">
                    <mxGeometry x="146" y="183" width="80" height="30" as="geometry"/>
                </mxCell>
                <mxCell id="6" value="App.js" style="rounded=1;whiteSpace=wrap;html=1;fillColor=#f0a30a;strokeColor=#BD7000;fontColor=#000000;" parent="1" vertex="1">
                    <mxGeometry x="146" y="248" width="80" height="30" as="geometry"/>
                </mxCell>
                <mxCell id="11" value="Legenda" style="swimlane;" parent="1" vertex="1">
                    <mxGeometry x="460" y="140" width="170" height="206" as="geometry">
                        <mxRectangle x="490" y="55" width="130" height="23" as="alternateBounds"/>
                    </mxGeometry>
                </mxCell>
                <mxCell id="12" value="" style="whiteSpace=wrap;html=1;fillColor=#6d8764;strokeColor=#3A5431;fontColor=#ffffff;" parent="11" vertex="1">
                    <mxGeometry x="10" y="50" width="20" height="15" as="geometry"/>
                </mxCell>
                <mxCell id="13" value="" style="rounded=1;whiteSpace=wrap;html=1;fillColor=#0050ef;strokeColor=#001DBC;fontColor=#ffffff;" parent="11" vertex="1">
                    <mxGeometry x="10" y="85" width="20" height="15" as="geometry"/>
                </mxCell>
                <mxCell id="15" value="camadas/pacotes" style="text;html=1;align=left;verticalAlign=middle;resizable=0;points=[];autosize=1;strokeColor=none;" parent="11" vertex="1">
                    <mxGeometry x="34" y="45" width="110" height="20" as="geometry"/>
                </mxCell>
                <mxCell id="16" value="arquivos principais" style="text;html=1;align=left;verticalAlign=middle;resizable=0;points=[];autosize=1;strokeColor=none;" parent="11" vertex="1">
                    <mxGeometry x="34" y="80" width="110" height="20" as="geometry"/>
                </mxCell>
                <mxCell id="18" value="componentes" style="text;html=1;align=left;verticalAlign=middle;resizable=0;points=[];autosize=1;strokeColor=none;" parent="11" vertex="1">
                    <mxGeometry x="34" y="114" width="90" height="20" as="geometry"/>
                </mxCell>
                <mxCell id="17" value="" style="rounded=1;whiteSpace=wrap;html=1;fillColor=#fa6800;strokeColor=#C73500;fontColor=#000000;" parent="11" vertex="1">
                    <mxGeometry x="10" y="119" width="20" height="15" as="geometry"/>
                </mxCell>
                <mxCell id="26" value="pages" style="text;html=1;align=left;verticalAlign=middle;resizable=0;points=[];autosize=1;strokeColor=none;" parent="11" vertex="1">
                    <mxGeometry x="34" y="145" width="43" height="18" as="geometry"/>
                </mxCell>
                <mxCell id="27" value="" style="rounded=1;whiteSpace=wrap;html=1;fillColor=#a20025;strokeColor=#6F0000;fontColor=#ffffff;" parent="11" vertex="1">
                    <mxGeometry x="10" y="149" width="20" height="15" as="geometry"/>
                </mxCell>
                <mxCell id="86" value="" style="rounded=1;whiteSpace=wrap;html=1;fillColor=#009900;strokeColor=none;fontColor=#ffffff;arcSize=50;" parent="11" vertex="1">
                    <mxGeometry x="10" y="174" width="20" height="15" as="geometry"/>
                </mxCell>
                <mxCell id="87" value="props" style="text;html=1;align=left;verticalAlign=middle;resizable=0;points=[];autosize=1;strokeColor=none;" parent="11" vertex="1">
                    <mxGeometry x="34" y="172" width="40" height="17" as="geometry"/>
                </mxCell>
                <mxCell id="114" value="ItemMusica.jsx" style="rounded=1;whiteSpace=wrap;html=1;fillColor=#fa6800;strokeColor=#C73500;fontColor=#000000;" vertex="1" parent="1">
                    <mxGeometry x="252" y="274" width="100" height="30" as="geometry"/>
                </mxCell>
                <mxCell id="139" style="edgeStyle=none;rounded=0;html=1;entryX=0;entryY=0.5;entryDx=0;entryDy=0;" edge="1" parent="1" source="115" target="114">
                    <mxGeometry relative="1" as="geometry">
                        <Array as="points">
                            <mxPoint x="239" y="319"/>
                            <mxPoint x="239" y="289"/>
                        </Array>
                    </mxGeometry>
                </mxCell>
                <mxCell id="140" style="edgeStyle=none;rounded=0;html=1;entryX=0;entryY=0.5;entryDx=0;entryDy=0;" edge="1" parent="1" source="115" target="118">
                    <mxGeometry relative="1" as="geometry">
                        <Array as="points">
                            <mxPoint x="239" y="319"/>
                            <mxPoint x="239" y="329"/>
                        </Array>
                    </mxGeometry>
                </mxCell>
                <mxCell id="115" value="components" style="rounded=1;whiteSpace=wrap;html=1;fillColor=#6d8764;strokeColor=#3A5431;fontColor=#ffffff;" vertex="1" parent="1">
                    <mxGeometry x="146" y="304" width="80" height="30" as="geometry"/>
                </mxCell>
                <mxCell id="145" style="edgeStyle=none;rounded=0;html=1;entryX=0;entryY=0.5;entryDx=0;entryDy=0;" edge="1" parent="1" source="116" target="144">
                    <mxGeometry relative="1" as="geometry">
                        <Array as="points">
                            <mxPoint x="239" y="421"/>
                            <mxPoint x="239" y="391"/>
                        </Array>
                    </mxGeometry>
                </mxCell>
                <mxCell id="116" value="pages" style="rounded=1;whiteSpace=wrap;html=1;fillColor=#6d8764;strokeColor=#3A5431;fontColor=#ffffff;" vertex="1" parent="1">
                    <mxGeometry x="146" y="406" width="80" height="30" as="geometry"/>
                </mxCell>
                <mxCell id="118" value="Menu.jsx" style="rounded=1;whiteSpace=wrap;html=1;fillColor=#fa6800;strokeColor=#C73500;fontColor=#000000;" vertex="1" parent="1">
                    <mxGeometry x="252" y="314" width="100" height="30" as="geometry"/>
                </mxCell>
                <mxCell id="120" style="edgeStyle=orthogonalEdgeStyle;rounded=0;orthogonalLoop=1;jettySize=auto;html=1;entryX=0;entryY=0.5;entryDx=0;entryDy=0;" edge="1" parent="1" target="129">
                    <mxGeometry relative="1" as="geometry">
                        <Array as="points">
                            <mxPoint x="360" y="284"/>
                            <mxPoint x="360" y="310"/>
                        </Array>
                        <mxPoint x="352" y="284" as="sourcePoint"/>
                    </mxGeometry>
                </mxCell>
                <mxCell id="121" style="edgeStyle=orthogonalEdgeStyle;rounded=0;orthogonalLoop=1;jettySize=auto;html=1;entryX=0;entryY=0.5;entryDx=0;entryDy=0;" edge="1" parent="1" target="128">
                    <mxGeometry relative="1" as="geometry">
                        <Array as="points">
                            <mxPoint x="360" y="284"/>
                            <mxPoint x="360" y="293"/>
                        </Array>
                        <mxPoint x="352" y="284" as="sourcePoint"/>
                    </mxGeometry>
                </mxCell>
                <mxCell id="122" style="edgeStyle=orthogonalEdgeStyle;rounded=0;orthogonalLoop=1;jettySize=auto;html=1;entryX=0;entryY=0.5;entryDx=0;entryDy=0;" edge="1" parent="1" target="127">
                    <mxGeometry relative="1" as="geometry">
                        <Array as="points">
                            <mxPoint x="360" y="284"/>
                            <mxPoint x="360" y="275"/>
                        </Array>
                        <mxPoint x="352" y="284" as="sourcePoint"/>
                    </mxGeometry>
                </mxCell>
                <mxCell id="123" style="edgeStyle=orthogonalEdgeStyle;rounded=0;orthogonalLoop=1;jettySize=auto;html=1;entryX=0;entryY=0.5;entryDx=0;entryDy=0;" edge="1" parent="1" target="126">
                    <mxGeometry relative="1" as="geometry">
                        <Array as="points">
                            <mxPoint x="360" y="284"/>
                            <mxPoint x="360" y="254"/>
                        </Array>
                        <mxPoint x="352" y="284" as="sourcePoint"/>
                    </mxGeometry>
                </mxCell>
                <mxCell id="124" style="edgeStyle=orthogonalEdgeStyle;rounded=0;orthogonalLoop=1;jettySize=auto;html=1;entryX=0;entryY=0.5;entryDx=0;entryDy=0;" edge="1" parent="1" target="125">
                    <mxGeometry relative="1" as="geometry">
                        <Array as="points">
                            <mxPoint x="360" y="284"/>
                            <mxPoint x="360" y="236"/>
                        </Array>
                        <mxPoint x="352" y="284" as="sourcePoint"/>
                    </mxGeometry>
                </mxCell>
                <mxCell id="125" value="&lt;font style=&quot;font-size: 10px&quot;&gt;musica&lt;/font&gt;" style="rounded=1;whiteSpace=wrap;html=1;fillColor=#009900;strokeColor=none;fontColor=#FFF;arcSize=50;align=center;" vertex="1" parent="1">
                    <mxGeometry x="381.67" y="229" width="40.33" height="14" as="geometry"/>
                </mxCell>
                <mxCell id="126" value="&lt;span style=&quot;font-size: 10px&quot;&gt;artista&lt;/span&gt;" style="rounded=1;whiteSpace=wrap;html=1;fillColor=#009900;strokeColor=none;fontColor=#FFF;arcSize=50;align=center;" vertex="1" parent="1">
                    <mxGeometry x="381.67" y="247" width="40.33" height="14" as="geometry"/>
                </mxCell>
                <mxCell id="127" value="&lt;span style=&quot;font-size: 10px&quot;&gt;categoria&lt;/span&gt;" style="rounded=1;whiteSpace=wrap;html=1;fillColor=#009900;strokeColor=none;fontColor=#FFF;arcSize=50;align=center;" vertex="1" parent="1">
                    <mxGeometry x="382" y="266" width="48.33" height="16.78" as="geometry"/>
                </mxCell>
                <mxCell id="128" value="&lt;span style=&quot;font-size: 10px&quot;&gt;ano&lt;/span&gt;" style="rounded=1;whiteSpace=wrap;html=1;fillColor=#009900;strokeColor=none;fontColor=#FFF;arcSize=50;align=center;" vertex="1" parent="1">
                    <mxGeometry x="383.34" y="287.55" width="33" height="11.45" as="geometry"/>
                </mxCell>
                <mxCell id="129" value="&lt;span style=&quot;font-size: 10px&quot;&gt;imagem&lt;/span&gt;" style="rounded=1;whiteSpace=wrap;html=1;fillColor=#009900;strokeColor=none;fontColor=#FFF;arcSize=50;align=center;" vertex="1" parent="1">
                    <mxGeometry x="383.34" y="304" width="47.66" height="11.45" as="geometry"/>
                </mxCell>
                <mxCell id="144" value="Musicas.jsx" style="rounded=1;whiteSpace=wrap;html=1;fontColor=#ffffff;strokeColor=#6F0000;fillColor=#a20025;" vertex="1" parent="1">
                    <mxGeometry x="252" y="376" width="137" height="30" as="geometry"/>
                </mxCell>
            </root>
        </mxGraphModel>
    </diagram>
</mxfile>